HIERARCHY
ROOT pelvis
{
	OFFSET 0.000000 0.000000 0.722303
	CHANNELS 6 Xposition Yposition Zposition Xrotation Yrotation Zrotation
	JOINT spine
	{
		OFFSET 0.000000 0.000000 0.000000
		CHANNELS 6 Xposition Yposition Zposition Xrotation Yrotation Zrotation
		JOINT spine.001
		{
			OFFSET 0.000000 -0.014140 0.269799
			CHANNELS 3 Xrotation Yrotation Zrotation
			JOINT neck
			{
				OFFSET 0.000000 0.032925 0.268155
				CHANNELS 6 Xposition Yposition Zposition Xrotation Yrotation Zrotation
				JOINT face
				{
					OFFSET 0.000000 0.003567 0.204331
					CHANNELS 6 Xposition Yposition Zposition Xrotation Yrotation Zrotation
					End Site
					{
						OFFSET 0.000000 -0.028602 -0.007695
					}
				}
			}
			JOINT shoulder.L
			{
				OFFSET 0.000000 0.032925 0.268155
				CHANNELS 6 Xposition Yposition Zposition Yrotation Xrotation Zrotation
				JOINT upper_arm.L
				{
					OFFSET 0.166001 0.000000 0.000000
					CHANNELS 6 Xposition Yposition Zposition Xrotation Yrotation Zrotation
					JOINT forearm.L
					{
						OFFSET 0.276826 0.000115 0.000950
						CHANNELS 6 Xposition Yposition Zposition Xrotation Yrotation Zrotation
						End Site
						{
							OFFSET 0.244356 -0.004160 -0.001310
						}
					}
				}
			}
			JOINT shoulder.R
			{
				OFFSET 0.000000 0.032925 0.268155
				CHANNELS 6 Xposition Yposition Zposition Yrotation Xrotation Zrotation
				JOINT upper_arm.R
				{
					OFFSET -0.166001 0.000000 0.000000
					CHANNELS 6 Xposition Yposition Zposition Xrotation Yrotation Zrotation
					JOINT forearm.R
					{
						OFFSET -0.273042 0.000115 0.000950
						CHANNELS 6 Xposition Yposition Zposition Xrotation Yrotation Zrotation
						End Site
						{
							OFFSET -0.239433 -0.004074 -0.001309
						}
					}
				}
			}
		}
	}
	JOINT pelvis.L
	{
		OFFSET 0.000000 0.000000 0.000000
		CHANNELS 6 Xposition Yposition Zposition Yrotation Xrotation Zrotation
		End Site
		{
			OFFSET 0.107830 0.000000 0.000000
		}
	}
	JOINT pelvis.R
	{
		OFFSET 0.000000 0.000000 0.000000
		CHANNELS 6 Xposition Yposition Zposition Yrotation Xrotation Zrotation
		End Site
		{
			OFFSET -0.107830 0.000000 0.000000
		}
	}
	JOINT thigh.L
	{
		OFFSET 0.107830 0.000000 0.000000
		CHANNELS 6 Xposition Yposition Zposition Xrotation Yrotation Zrotation
		JOINT shin.L
		{
			OFFSET 0.017911 0.000000 -0.341766
			CHANNELS 6 Xposition Yposition Zposition Xrotation Yrotation Zrotation
			JOINT foot.L
			{
				OFFSET 0.015944 0.000000 -0.304224
				CHANNELS 3 Xrotation Yrotation Zrotation
				End Site
				{
					OFFSET 0.015794 -0.161042 -0.067624
				}
			}
			JOINT heel.02.L
			{
				OFFSET 0.015944 0.000000 -0.304224
				CHANNELS 3 Xrotation Yrotation Zrotation
				End Site
				{
					OFFSET -0.075748 0.034159 -0.079500
				}
			}
		}
	}
	JOINT thigh.R
	{
		OFFSET -0.107830 0.000000 0.000000
		CHANNELS 6 Xposition Yposition Zposition Xrotation Yrotation Zrotation
		JOINT shin.R
		{
			OFFSET -0.017874 0.000000 -0.341064
			CHANNELS 6 Xposition Yposition Zposition Xrotation Yrotation Zrotation
			JOINT foot.R
			{
				OFFSET -0.016296 0.000000 -0.310946
				CHANNELS 3 Xrotation Yrotation Zrotation
				End Site
				{
					OFFSET -0.017587 -0.179314 -0.075297
				}
			}
			JOINT heel.02.R
			{
				OFFSET -0.016296 0.000000 -0.310946
				CHANNELS 3 Xrotation Yrotation Zrotation
				End Site
				{
					OFFSET 0.074710 0.034159 -0.073409
				}
			}
		}
	}
}
MOTION
Frames: 4
Frame Time: 0.041667
-0.005685 0.013205 0.717860 -0.000000 0.000000 -2.534952 0.000000 0.000000 0.000000 -7.484963 1.276028 0.150864 9.999081 0.114250 0.930625 -0.000000 0.032925 0.268156 -0.519003 -3.509412 -0.491956 -0.000000 0.003567 0.204331 -4.094951 -0.000000 -0.000003 0.000000 0.032925 0.268156 0.679910 0.000496 -0.083573 0.166001 0.000000 0.000000 33.176838 76.922547 -41.101777 0.276826 0.000115 0.000950 1.246304 8.190911 -16.536836 0.000000 0.032925 0.268156 0.730810 0.000574 -0.089755 -0.166001 0.000000 -0.000000 39.156235 -78.567789 46.985326 -0.273042 0.000115 0.000950 1.801152 -9.516421 20.761673 -0.000000 0.000000 0.000000 0.421259 0.000000 0.000068 -0.000000 0.000000 0.000000 0.421228 0.000000 -0.000000 0.107827 0.000000 -0.000793 3.603435 -0.528229 0.205477 0.017911 0.000000 -0.341766 -0.626486 4.128798 -0.010271 -3.546716 -9.692774 19.922687 0.017531 -18.733997 -9.629415 -0.107827 0.000000 0.000793 0.296983 1.219539 -0.018714 -0.017874 0.000000 -0.341064 5.051949 -1.221290 -0.211171 -8.993877 5.153171 -8.142559 -1.324573 22.671869 12.106225 
-0.004960 0.015241 0.714797 -0.000000 0.000000 -1.386210 0.000000 0.000000 0.000000 -7.499927 1.284155 0.151995 10.000027 -0.016821 -0.136905 -0.000000 0.032925 0.268155 0.177758 -3.321290 -1.621576 -0.000000 0.003567 0.204331 -3.769895 -0.000000 -0.000002 -0.000000 0.032925 0.268155 0.654196 0.000458 -0.080337 0.166001 -0.000000 -0.000000 34.087698 76.688722 -42.353948 0.276826 0.000115 0.000950 1.145595 8.156574 -15.129716 -0.000000 0.032925 0.268155 0.705133 0.000533 -0.086608 -0.166001 0.000000 -0.000000 39.031014 -77.664585 47.512070 -0.273042 0.000115 0.000950 1.847584 -10.080022 19.974559 0.000000 -0.000000 0.000000 0.541455 0.000001 -0.000128 0.000000 -0.000000 0.000000 0.541424 -0.000000 0.000000 0.107826 -0.000000 -0.001019 3.199695 0.047336 0.166413 0.017911 0.000000 -0.341766 0.011551 3.180258 0.000284 -3.550255 -8.988835 18.463571 0.523307 -19.026697 -10.256493 -0.107825 -0.000000 0.001019 0.291371 1.195515 -0.018301 -0.017874 0.000000 -0.341064 5.578371 -1.623702 -0.213629 -9.103280 5.814614 -9.355372 -0.156125 22.149142 12.828891 
-0.004781 0.016903 0.712405 -0.000000 0.000000 -0.585058 0.000000 0.000000 0.000000 -7.488753 1.324118 0.156595 9.999368 -0.099082 -0.806836 0.000000 0.032925 0.268155 0.805831 -3.186013 -2.560908 -0.000000 0.003567 0.204331 -3.544197 -0.000000 0.000001 -0.000000 0.032925 0.268156 0.606863 0.000395 -0.074612 0.166001 -0.000000 0.000000 34.835437 76.494574 -43.386871 0.276826 0.000115 0.000950 1.064549 8.068534 -14.112045 -0.000000 0.032925 0.268155 0.657844 0.000463 -0.080810 -0.166001 -0.000000 -0.000000 38.832108 -77.088206 47.711293 -0.273042 0.000115 0.000950 1.875088 -10.435664 19.502961 0.000000 -0.000000 0.000000 0.656839 0.000000 -0.000062 0.000000 -0.000000 0.000000 0.656808 0.000000 -0.000000 0.107823 0.000000 -0.001236 2.978432 0.399543 0.145768 0.017911 -0.000000 -0.341766 0.255211 2.548307 0.007708 -3.288258 -8.490606 17.586089 0.822818 -19.366537 -10.729854 -0.107823 -0.000000 0.001236 0.276056 1.168872 -0.017274 -0.017874 0.000000 -0.341064 5.873455 -1.960510 -0.207686 -9.206401 6.284712 -10.200894 0.393673 21.934654 13.190764 
-0.005031 0.017968 0.710894 -0.000000 0.000000 -0.176842 0.000000 -0.000000 0.000000 -7.465603 1.379530 0.162866 9.998871 -0.129817 -1.057234 -0.000000 0.032925 0.268155 1.359649 -3.111281 -3.282675 0.000000 0.003567 0.204331 -3.320619 0.000000 -0.000000 0.000000 0.032925 0.268155 0.551673 0.000327 -0.067800 0.166001 -0.000000 0.000000 35.342162 76.364732 -44.087365 0.276826 0.000115 0.000950 1.008646 7.943212 -13.528402 0.000000 0.032925 0.268155 0.602570 0.000390 -0.074044 -0.166001 0.000000 0.000000 38.544875 -76.874640 47.532758 -0.273042 0.000115 0.000950 1.889830 -10.569843 19.381960 0.000000 0.000000 0.000000 0.754171 -0.000001 0.000082 0.000000 0.000000 0.000000 0.754140 -0.000000 0.000000 0.107821 0.000000 -0.001419 2.911554 0.529024 0.139209 0.017911 0.000000 -0.341766 0.182758 2.279099 0.005949 -2.839729 -8.242111 17.335257 0.929378 -19.695262 -11.027852 -0.107821 -0.000000 0.001419 0.260826 1.141604 -0.016259 -0.017874 -0.000000 -0.341064 5.941647 -2.192159 -0.198085 -9.360835 6.547950 -10.630836 0.407995 22.004832 13.256109 
